<?xml version="1.0" encoding="UTF-8"?>
<svg version="1.1" xmlns="http://www.w3.org/2000/svg" width="1024" height="1024">
<path d="M0 0 C337.92 0 675.84 0 1024 0 C1024 337.92 1024 675.84 1024 1024 C686.08 1024 348.16 1024 0 1024 C0 686.08 0 348.16 0 0 Z " fill="#000000" transform="translate(0,0)"/>
<path d="M0 0 C19.5247118 -0.07033144 39.04939761 -0.12310572 58.57421017 -0.15543652 C67.64155775 -0.17085263 76.70882625 -0.19184061 85.77612305 -0.22631836 C93.68657809 -0.25638275 101.59697581 -0.27561311 109.5074864 -0.28226548 C113.68933279 -0.28614913 117.87101531 -0.29516416 122.05280876 -0.31719017 C126.00331576 -0.33782584 129.95359422 -0.34378029 133.90415001 -0.33932304 C135.34026082 -0.34013633 136.77638074 -0.3459386 138.21244431 -0.35761642 C163.89893951 -0.55592984 191.92510053 5.74729447 211 24 C229.99010419 43.46804305 233.4865659 68.36940007 233.20703125 94.4921875 C232.75317258 113.86610557 226.75060197 130.42242865 213.5625 144.625 C212.716875 145.40875 211.87125 146.1925 211 147 C210.43925781 147.54269531 209.87851562 148.08539063 209.30078125 148.64453125 C204.06560267 153.51866303 198.37436127 156.80110179 192 160 C194.70786038 161.80524025 197.39416544 163.11196341 200.34375 164.46044922 C209.40721227 168.68992403 216.15695268 173.74780187 223 181 C223.74894531 181.77988281 224.49789062 182.55976562 225.26953125 183.36328125 C229.40551995 188.06866036 232.24768388 193.0801555 234.8125 198.75 C235.2297937 199.66011841 235.2297937 199.66011841 235.65551758 200.58862305 C240.84027549 212.85168891 241.48666499 225.27411901 241.39111328 238.37695312 C241.37502074 240.99662322 241.39105279 243.61475118 241.41015625 246.234375 C241.44139094 269.86969293 235.11736587 291.99937649 218.6171875 309.52734375 C191.73093372 334.92883426 154.31495323 338.23874906 119.125 338.0625 C117.3580742 338.05747018 115.591147 338.05290992 113.82421875 338.04882812 C109.54944374 338.0379509 105.27473792 338.02076977 101 338 C100.52519243 336.73430691 100.05042891 335.4685973 99.57568359 334.20288086 C99.31129486 333.49804062 99.04690613 332.79320038 98.77450562 332.06700134 C95.48355602 323.28411183 92.47603631 314.50141763 89.88647461 305.48999023 C88.20868819 299.65325877 86.4060862 293.86229636 84.5234375 288.08837891 C83.61924312 285.2613131 83 282.99064193 83 280 C83.7014061 279.99635437 84.40281219 279.99270874 85.12547302 279.98895264 C91.81628305 279.95069414 98.50664893 279.89342584 105.19712734 279.81609726 C108.63477099 279.77700071 112.07217297 279.74463138 115.51000977 279.72900391 C144.79057 280.46204058 144.79057 280.46204058 169.76171875 267.26953125 C177.83798987 258.41105469 179.38702245 248.30022674 179.3125 236.6875 C179.30404053 235.30546387 179.30404053 235.30546387 179.29541016 233.89550781 C179.09770209 222.77296084 177.26342363 213.70224024 170 205 C169.53207031 204.43539062 169.06414062 203.87078125 168.58203125 203.2890625 C163.12740175 197.76432208 155.26060129 196.07800562 148 194 C147.42260071 193.8190126 146.84520142 193.63802521 146.25030518 193.45155334 C143.03404605 192.80616863 139.8368047 192.82168688 136.56933594 192.79467773 C135.82748047 192.78477814 135.085625 192.77487854 134.32128906 192.76467896 C131.87568321 192.73315853 129.43005795 192.70834405 126.984375 192.68359375 C125.2861481 192.66301605 123.58792623 192.64201936 121.88970947 192.62062073 C117.4247241 192.56548433 112.95969315 192.51603793 108.49462891 192.46777344 C103.13476589 192.4086538 97.77498598 192.34247229 92.41519165 192.27747345 C84.27684529 192.17957004 76.13844508 192.09064145 68 192 C68 206.19 68 220.38 68 235 C66 234 66 234 64.88671875 231.21875 C64.49097656 229.9915625 64.09523438 228.764375 63.6875 227.5 C63.29949219 226.3140625 62.91148437 225.128125 62.51171875 223.90625 C61.43553088 220.48526109 60.43939596 217.04470849 59.45334244 213.59679031 C56.56528665 203.57201021 53.25870127 193.71272114 49.85837555 183.85176849 C48.08440101 178.70450429 46.32456607 173.55240817 44.56445312 168.40039062 C44.19336552 167.31461605 43.82227791 166.22884148 43.43994522 165.11016464 C39.13149382 152.48505377 34.91447176 139.82964119 30.703125 127.171875 C30.31526321 126.00666824 29.92740143 124.84146149 29.52778625 123.64094543 C26.76635319 115.34468501 24.0078446 107.04745387 21.25 98.75 C18.44657562 90.31587867 15.6420494 81.88212639 12.83504486 73.44919586 C11.73262712 70.13555238 10.63203597 66.8213062 9.53155518 63.50701904 C8.85608623 61.47698064 8.18053335 59.44697016 7.50488281 57.41699219 C7.20777405 56.52049957 6.91066528 55.62400696 6.60455322 54.7003479 C6.17662476 53.41645676 6.17662476 53.41645676 5.74005127 52.10662842 C5.32295773 50.83261295 5.32295773 50.83261295 4.89743805 49.5328598 C4.03547924 46.98866324 4.03547924 46.98866324 2.90181732 44.56534576 C-0.9689386 35.64029913 -0.44926248 26.84796158 -0.25 17.3125 C-0.22989374 15.62827657 -0.2116503 13.94402983 -0.1953125 12.25976562 C-0.15166723 8.17259142 -0.08287227 4.08655929 0 0 Z " fill="#FCFCFB" transform="translate(496,343)"/>
<path d="M0 0 C24.42 0 48.84 0 74 0 C77.26620144 9.2542374 80.33048185 17.94953372 82.91796875 27.29589844 C84.90955331 34.11366039 87.2760657 40.80705353 89.59820557 47.51797485 C91.16481247 52.04692672 92.71854988 56.58029532 94.2734375 61.11328125 C94.74642776 62.49101967 94.74642776 62.49101967 95.22897339 63.89659119 C98.68760576 73.98251134 102.06090671 84.09623272 105.42098999 94.21531677 C108.8027958 104.39962811 112.19133286 114.58166676 115.5859375 124.76171875 C116.10438058 126.31672828 116.62281292 127.8717414 117.14123535 129.42675781 C118.21925914 132.66028154 119.2973275 135.89379041 120.37542725 139.12728882 C122.75106625 146.25257109 125.12611324 153.37805069 127.501194 160.50351906 C128.79764591 164.3929794 130.09413741 168.28242655 131.390625 172.171875 C131.90690123 173.72070306 132.42317727 175.26953119 132.93945312 176.81835938 C133.19581543 177.58744629 133.45217773 178.3565332 133.71630859 179.14892578 C142.19543457 204.58630371 142.19543457 204.58630371 142.87346649 206.6205368 C143.30746373 207.92243818 143.7415682 209.22430381 144.17578888 210.52613068 C145.16719932 213.49883771 146.1565019 216.47221497 147.14233398 219.44677734 C147.49175049 220.50010254 147.84116699 221.55342773 148.20117188 222.63867188 C148.50212769 223.54806519 148.8030835 224.4574585 149.11315918 225.39440918 C150.03168321 228.09308714 151.00909188 230.76461643 152 233.4375 C153.40558674 237.26007322 154.66687374 241.09699006 155.8425293 244.99633789 C157.95500641 251.91060306 160.218884 258.76750083 162.51953125 265.62109375 C162.94563141 266.89496389 163.37154545 268.16889631 163.79728699 269.44288635 C165.35641735 274.10712991 166.91880495 278.77028071 168.48126221 283.43341064 C177.82608082 311.32559005 177.82608082 311.32559005 182.13671875 324.66015625 C182.43141556 325.55834579 182.72611237 326.45653534 183.02973938 327.38194275 C183.2928038 328.20344315 183.55586823 329.02494354 183.8269043 329.87133789 C184.05532516 330.57754776 184.28374603 331.28375763 184.51908875 332.0113678 C185 334 185 334 185 338 C163.22 338 141.44 338 119 338 C114.50806961 325.64719142 114.50806961 325.64719142 113.32421875 321.23046875 C113.05714111 320.25062012 112.79006348 319.27077148 112.51489258 318.26123047 C112.24185303 317.24689941 111.96881348 316.23256836 111.6875 315.1875 C109.40415507 306.85444233 106.97916136 298.59348012 104.3125 290.375 C101.96125076 283.12091296 99.80836042 275.87566459 97.91015625 268.48828125 C96.61882793 263.53911305 95.1760264 258.63762834 93.734375 253.73046875 C93 251 93 251 93 249 C55.71 249 18.42 249 -20 249 C-20.66 252.63 -21.32 256.26 -22 260 C-23.04550467 263.39459828 -24.12722783 266.72011594 -25.3125 270.0625 C-27.65928063 276.86785865 -29.82415741 283.67133414 -31.6875 290.625 C-33.18930888 296.2207893 -34.89330312 301.61277063 -36.96875 307.02734375 C-38.5916265 311.70540821 -39.83397619 316.48902026 -41.07421875 321.28125 C-42.63721612 327.16609243 -44.6908826 332.22720651 -47 338 C-67.79 338 -88.58 338 -110 338 C-109.16290826 332.97744958 -108.06531725 328.41071073 -106.625 323.5625 C-106.41617187 322.83740234 -106.20734375 322.11230469 -105.9921875 321.36523438 C-105.78078125 320.64787109 -105.569375 319.93050781 -105.3515625 319.19140625 C-105.16416504 318.55404541 -104.97676758 317.91668457 -104.78369141 317.26000977 C-104 315 -104 315 -102.597229 311.85116577 C-100.95284651 308.03426499 -99.77774729 304.11926693 -98.66064453 300.12133789 C-96.14371147 291.35386502 -93.32723185 282.70645856 -90.4296875 274.05859375 C-89.90245836 272.47810616 -89.37545611 270.89754287 -88.84866333 269.31690979 C-87.74960234 266.02127661 -86.64856205 262.72631428 -85.54589844 259.43188477 C-84.16822901 255.3156516 -82.79440109 251.19815018 -81.42194748 247.0801754 C-76.26090505 231.59781131 -71.06224998 216.13103884 -65.71841812 200.71072578 C-65.48391827 200.03403784 -65.24941841 199.35734989 -65.0078125 198.66015625 C-64.77582027 197.99080488 -64.54382805 197.32145351 -64.30480576 196.63181877 C-61.36112248 188.12528289 -58.61363476 179.60302327 -56.1640625 170.94140625 C-53.52925253 161.79913043 -50.20783071 152.8492786 -47.08398438 143.86572266 C-43.76754563 134.31231962 -40.56074271 124.76462222 -37.76622009 115.04452515 C-35.92533127 108.6597109 -33.85354475 102.36236074 -31.72097778 96.06890869 C-30.53553407 92.56933075 -29.36132216 89.06599016 -28.1875 85.5625 C-27.93633926 84.81316193 -27.68517853 84.06382385 -27.42640686 83.29177856 C-25.35654658 77.10065805 -23.32860348 70.89631297 -21.3125 64.6875 C-20.84498573 63.2478035 -20.84498573 63.2478035 -20.36802673 61.77902222 C-18.83280387 57.04786039 -17.30096125 52.31562055 -15.77172852 47.58251953 C-13.24306171 39.77217055 -10.68741261 31.99523769 -7.82495117 24.29931641 C-6.50585472 20.62271079 -5.43296396 16.88355619 -4.375 13.125 C-3.10563188 8.6420417 -1.73544032 4.33860079 0 0 Z " fill="#FBFBFB" transform="translate(390,343)"/>
<path d="M0 0 C11.735625 -0.103125 23.47125 -0.20625 35.5625 -0.3125 C39.23705322 -0.35802002 42.91160645 -0.40354004 46.69750977 -0.45043945 C51.2635498 -0.47302246 51.2635498 -0.47302246 53.41636658 -0.47721863 C54.88661824 -0.48478353 56.35684343 -0.50212723 57.82688904 -0.52787781 C70.60951392 -0.74015133 84.12584906 0.57424528 94.35546875 9.19921875 C103.60230803 19.32461758 105.36376738 31.35799838 105.2109375 44.5625 C104.61729012 54.23675361 102.29965373 63.44041552 96 71 C83.41177036 82.00304517 67.07675092 82.31592018 51.171875 82.1953125 C49.86686035 82.19329834 48.5618457 82.19128418 47.21728516 82.18920898 C42.39482044 82.17883387 37.57240626 82.15091212 32.75 82.125 C21.9425 82.08375 11.135 82.0425 0 82 C0 54.94 0 27.88 0 0 Z " fill="#020101" transform="translate(564,399)"/>
<path d="M0 0 C1.95927202 2.93890803 2.67849854 4.97118259 3.5859375 8.33984375 C4.02292969 9.93602539 4.02292969 9.93602539 4.46875 11.56445312 C4.7678125 12.67755859 5.066875 13.79066406 5.375 14.9375 C7.42006859 22.50696847 9.6015354 29.97773175 12.125 37.40258789 C13.11103008 40.32958958 13.9871494 43.27385892 14.8125 46.25 C16.64986993 52.78206712 18.53510346 59.29906387 20.4375 65.8125 C20.89322388 67.3735144 20.89322388 67.3735144 21.3581543 68.96606445 C24.31592581 79.09126191 27.29152982 89.21116576 30.27734375 99.328125 C31.32259749 102.87083518 32.36261138 106.41505481 33.40039062 109.95996094 C33.99641663 111.98780836 34.59950292 114.01346514 35.203125 116.0390625 C35.56921875 117.28429687 35.9353125 118.52953125 36.3125 119.8125 C36.63863281 120.91207031 36.96476562 122.01164063 37.30078125 123.14453125 C38 126 38 126 38 130 C12.59 130 -12.82 130 -39 130 C-37.07546948 122.30187792 -35.09687473 114.74838391 -32.75 107.1875 C-32.13007454 105.17191614 -31.51028681 103.15628993 -30.890625 101.140625 C-30.57673828 100.12291016 -30.26285156 99.10519531 -29.93945312 98.05664062 C-29.02992527 95.097366 -28.13003664 92.13537293 -27.234375 89.171875 C-24.67448015 80.70536112 -22.09370158 72.24990895 -19.37451172 63.83300781 C-15.53013262 51.92852625 -12.12960937 39.9258174 -8.79785156 27.86914062 C-7.64321917 23.71698643 -6.4573733 19.57459776 -5.25 15.4375 C-4.88390625 14.17808594 -4.5178125 12.91867187 -4.140625 11.62109375 C-2.89946231 7.68082727 -1.48246927 3.85527209 0 0 Z " fill="#030303" transform="translate(427,406)"/>
<path d="M0 0 C0.66 0 1.32 0 2 0 C2.51046875 1.17755859 2.51046875 1.17755859 3.03125 2.37890625 C8.05320028 13.26425062 13.78827324 18.82155554 25 23 C25 23.66 25 24.32 25 25 C24.21496094 25.3403125 23.42992187 25.680625 22.62109375 26.03125 C11.73574938 31.05320028 6.17844446 36.78827324 2 48 C1.34 48 0.68 48 0 48 C-0.3403125 47.21496094 -0.680625 46.42992187 -1.03125 45.62109375 C-6.05320028 34.73574938 -11.78827324 29.17844446 -23 25 C-23 24.34 -23 23.68 -23 23 C-22.21496094 22.6596875 -21.42992187 22.319375 -20.62109375 21.96875 C-9.73574938 16.94679972 -4.17844446 11.21172676 0 0 Z " fill="#7D7D7D" transform="translate(967,944)"/>
</svg>
